<?xml version="1.0" encoding="UTF-8"?>
<!DOCTYPE svg PUBLIC "-//W3C//DTD SVG 1.1//EN" "http://www.w3.org/Graphics/SVG/1.1/DTD/svg11.dtd">
<!-- Creator: CorelDRAW -->
<svg xmlns="http://www.w3.org/2000/svg" xml:space="preserve" width="46mm" height="7mm" version="1.1" style="shape-rendering:geometricPrecision; text-rendering:geometricPrecision; image-rendering:optimizeQuality; fill-rule:evenodd; clip-rule:evenodd"
viewBox="0 0 4600 700"
 xmlns:xlink="http://www.w3.org/1999/xlink"
 xmlns:xodm="http://www.corel.com/coreldraw/odm/2003">
 <defs>
  <style type="text/css">
   <![CDATA[
    .fil0 {fill:#373435}
    .fil1 {fill:#373435;fill-rule:nonzero}
   ]]>
  </style>
 </defs>
 <g id="Capa_x0020_1">
  <metadata id="CorelCorpID_0Corel-Layer"/>
  <g id="_2471142062464">
   <path class="fil0" d="M811.28 148.64c-22.79,6.27 -25.51,14.61 -50.79,3.48 -8.43,-3.71 -15.97,-10.49 -21.5,-12.47 -5.22,-1.86 -7.59,-1.11 -13.13,-2.13l-13.82 -4.38c15.46,-41.97 98.61,-29.38 99.24,15.5zm-363.91 310.78c-7.86,-16.86 -19.38,-35.28 -42.56,-32.07 8.05,40.55 30.43,67.25 55.06,91.63 11.46,-5.29 10.46,-4.84 14.45,-11.03 -5.01,-15.58 -9.16,-10.74 -16.29,-24.1 -4.42,-8.3 -7.19,-17 -10.66,-24.43zm-135.91 212.75c12.25,-0.88 31.89,-28.5 55.53,-48.9l34.4 -36.25c5.35,-6.43 14.23,-16.05 6.91,-23.67 -11.89,-12.37 -44.43,39.69 -53.74,47.31 -19.44,15.91 -50.15,27.26 -43.1,61.51zm216.13 -365.52c16.02,-3.74 28.15,-3.53 43.75,-5.89 20.24,-3.06 26.58,-9.25 19.87,-23.14 -4.89,2.31 -8.17,-0.22 -14.34,19.24 -18.12,-1.17 -42.76,-1.41 -58.81,-7.33 -33.71,-12.44 -22.47,-16.36 -42.17,-25.03l-7.75 12.75c-12.05,26.22 -15.1,15.31 -18.57,25.67 -2.13,19.33 0.5,35.68 17.71,39.94 8.55,2.12 17.85,1.52 25.73,4.3 9.82,3.46 7.58,5.97 14.91,7.79 6.51,-8.38 0.1,-2.37 11.35,-6.36 5.87,-2.09 8.24,-2.45 14.08,-3.96 -1.29,-13.34 -5.92,-29.78 -5.76,-37.98zm0.62 -124.29c-2.64,20.34 28.34,39.22 42.04,44.99 28.65,12.07 27.05,35.35 46.59,46.95 0.62,-0.49 1.54,-2.07 1.8,-1.52 0.25,0.54 1.42,-1.2 1.76,-1.54l16.91 -27.6c3.68,-11.11 2.11,-9.86 4.33,-20.81 2.51,-12.38 1.3,-7.59 8.39,-15.63l3.76 -4c-27.42,-4.47 -28.58,-0.53 -22.16,-28.89 3.02,-13.32 11.4,-36.47 11.13,-47.27 -15.71,0.81 -7.92,-9.57 -22.19,32.49 -31.6,93.18 -57.33,24.26 -92.36,22.83zm-25.2 206.45c-23.54,-6.7 -45.95,-18.75 -57.74,-36.35 -20.54,-30.65 -7.25,-58.02 -7.49,-73l-12.93 -3.78c-7.16,13.5 -16.58,47.16 -16.86,65.94 -0.6,41.29 60.87,32.51 85.5,115.81 4.92,16.65 5.7,20.63 20.84,15.78 7.15,-26.9 -14.47,-45.02 -11.32,-84.4zm-186.09 -91.33c10.94,17.88 14.66,25.52 18.29,46.99 -31.99,21.46 -14.66,17.17 -29.11,44.27 -4.31,-8.37 -3.48,-23.08 -2.55,-34.56l-4.56 -2.63c-22.09,-13.57 -6.64,-17.69 -18.43,-31.95 -41.97,20.66 19.35,161.85 36.91,196.06 8.53,16.63 4.22,16.91 22,16.56 -3.79,-14.34 -24.33,-39.44 -20.55,-49.53 11.45,3.51 -0.42,-6.26 14.18,17.56 8.85,14.45 11.46,16.49 13.31,35.67l35.01 3.15c-6.94,-23.64 -20.84,-18.47 -18.05,-62.14 2.5,-56.66 0.82,-114.71 -5.2,-170.62 -2.7,-25.06 2.29,-28.57 -18.17,-41.05l-81.3 -49.61c8.16,-29.32 33.43,-22.75 63.42,-20.74 24.55,1.65 49.32,4.13 73.35,7.01 3.56,22.7 17.82,47.86 46.1,40.85 0.36,-17.23 -7.54,-31 -7.98,-46.44l22.85 -10.23c10.68,-4.39 19.58,-8.59 20.01,-24.13 -11.78,-3.67 -10.59,-3.52 -15.11,-12.81 7.53,-15.24 8.91,-7.53 20.15,-19.23l-7.86 -1.18c-9.93,0.7 -18.15,9.37 -21.43,10.13 -3.05,0.71 -32.72,-4.27 -43.28,-4.16l-6.07 19.56c-13.68,1.48 -27.8,0.59 -39.45,3.54 -10.77,2.72 -23.48,8.24 -36.28,5.7 -3.68,-7.06 -5.84,-6.12 -3.45,-17.54 1.46,-6.93 5.63,-9.64 9.02,-12.11 11.77,-8.57 43.67,-15.38 60.59,-18.26 17.31,-2.96 32.51,-11.9 43.93,-24.25 11.2,-12.14 50.75,-37.56 86.65,-41.65 36.09,-4.12 94.8,19.31 115.57,41.53 29.15,31.17 24.11,91.85 54.74,104.3 10.04,4.08 9.97,-1.2 29.82,-6.66 9.48,-2.6 23.12,-7.39 35.12,-7.94 4.74,8.03 -1.64,-0.81 3.54,5.4 4.3,5.16 3.07,3.54 6.72,6.76 0.58,13.09 3.51,22.14 0.21,27.98 -4.37,2.49 -10.61,4.45 -17.23,7.58 -8.21,1.03 -19.83,1.29 -36.2,0.9 -9.93,14.22 4.55,10.01 -9.28,19.52 -4.21,2.9 -9.93,1.87 -18.07,7.35 -11.06,7.43 -12.73,12.39 -27.36,20.87 -2.58,28.52 49.63,20.92 50.6,86.36 1.99,134.8 15.57,89.36 18.34,121.86 -23.54,12.45 -65.85,-3.27 -84.71,19.56 -4.94,20.83 3.47,42.44 16.02,54.19 12.77,-2.8 26.49,-9.99 33.34,-20.94 -23.21,-23.22 -21.5,-11.4 -25.12,-27.18 17.58,-8.52 62.48,-7.16 79.89,-1.52 2.08,7.17 2.37,17.63 5.53,25.66 7.89,19.99 9.69,3.08 10.18,23.91l-5.26 2.49c-0.91,0.31 -1.74,0.7 -2.78,0.99 -1.07,0.31 -1.79,0.5 -2.94,0.75 -12.1,2.64 -53.22,0.64 -70.85,8.34 -25.14,10.97 -36.16,27.12 -73.59,18.25 -4.54,-24.15 17.6,-47.49 -24.81,-56.43 1.92,16.53 5.13,43.56 -10.08,51.6l-9.35 -22.91c-5.85,-10.92 -9.09,-10.75 -23.58,-9.52l-0.38 41.88c-22.12,-12.65 -18.33,-16.3 -44.25,-1.24 -28.31,16.45 -47.24,34.51 -71.08,54.09 -20.41,16.74 -31.27,0.29 -41.28,20.63 7.72,6.76 -2.23,2.49 9.38,3.61l33.32 -3.27c27.06,-3.64 57.11,-42.21 95.92,-38.84 11.37,0.99 25.38,8.78 35.52,10.39l89.22 -0.52c10.75,-2.55 3.59,-0.66 9.37,-4.16 7.67,-4.65 0.8,-0.86 5.55,-4.1 17.43,-11.89 32.4,-12.72 52.36,-18.46 12.04,-3.47 20.44,-10.19 28.98,-15.48 29.59,-18.33 47.79,-16.9 50.83,-38.19 6.93,-48.57 -37.46,-90.94 -50.77,-125.45 -1.37,-31.67 -15.09,-123.65 -2.17,-146.74 14.99,-16.17 62.85,-17.27 88.41,-48.39 8.83,-10.74 3.19,-7.81 18.03,-23.74 15.08,-16.19 1.05,-17.27 -0.21,-43.35 -1.58,-32.51 19.33,-5.14 3.34,-49.46l-7.35 -11.86c-21.71,-21.92 -23.39,-17.4 -54.99,-21.27 -66.97,-8.21 -40.87,-0.64 -109.21,-20.14 -69.54,-19.85 -96.6,-45.93 -145.32,-38.51 -45.08,6.86 -41.04,1.74 -71.57,23.8l-22.62 18.91c-4.65,4.98 -6.19,9.97 -14.65,14.92 -19.41,11.37 -53.89,-5.11 -81.77,-7.63 -43.14,-3.92 -212.5,-6.01 -256.7,-1.56 -19.75,1.99 -28.92,1.25 -48.28,5.84 -12.44,2.95 -10.85,0.66 -11.68,13.65 -0.2,3.26 -0.25,6.05 0.09,9.06 1.97,17.37 5.62,12.38 20.3,9.6 70.61,-13.36 191.69,-29.11 259.7,-12.26 -0.39,15.64 -1.36,22.41 -9.52,34.62l-11.96 19.79c-20.15,37.35 -86.16,19.67 -42.25,80.22 22.84,31.49 18.52,22.42 44.94,38.54 11.33,6.91 16.51,13.18 27.4,19.79z"/>
   <path class="fil1" d="M1292.18 447.21l-7.68 107.89c-0.09,1.3 -1.18,2.29 -2.46,2.29l-283.37 0c-1.36,0 -2.47,-1.1 -2.47,-2.46l0 -18.36c0,-1.32 1.04,-2.4 2.35,-2.47 3.76,-0.32 8.38,-0.79 14.24,-1.39l3.27 -0.34c3.77,-0.43 6.98,-0.92 9.6,-1.48 2.49,-0.52 4.4,-1.1 5.7,-1.71l0.23 -0.09c2.27,-0.98 4.21,-2.17 5.83,-3.6 1.61,-1.41 2.92,-3.05 3.91,-4.93 1.03,-1.95 1.81,-4.16 2.33,-6.64 0.53,-2.53 0.79,-5.38 0.79,-8.55l0 -259.95c0,-2.79 -0.22,-5.38 -0.67,-7.76 -0.45,-2.36 -1.12,-4.58 -2.01,-6.65l-0.01 -0.02c-0.87,-1.87 -2.14,-3.57 -3.8,-5.11 -1.76,-1.63 -3.96,-3.08 -6.62,-4.37l-0.18 -0.1c-1.8,-0.93 -4.01,-1.87 -6.6,-2.82 -2.7,-0.98 -5.75,-1.94 -9.14,-2.87l-0.03 -0.01c-3.43,-0.98 -6.53,-1.74 -9.27,-2.29 -2.83,-0.57 -5.39,-0.94 -7.63,-1.11 -1.3,-0.1 -2.28,-1.18 -2.28,-2.46l-0.01 -18.36c0,-1.36 1.11,-2.47 2.47,-2.47l153.14 0c1.36,0 2.47,1.11 2.47,2.47l0 18.36c0,1.36 -1.11,2.47 -2.47,2.47l-0.11 0c-2.27,0.09 -4.88,0.34 -7.82,0.75 -2.98,0.41 -6.39,0.99 -10.22,1.74l-0.13 0.02c-3.71,0.77 -6.91,1.48 -9.6,2.13 -2.66,0.66 -4.83,1.27 -6.51,1.85 -2.6,0.95 -4.8,2.2 -6.55,3.74 -1.7,1.5 -3.01,3.3 -3.91,5.4l0 0.02c-1.03,2.34 -1.79,4.73 -2.29,7.18 -0.49,2.46 -0.74,5.03 -0.74,7.74l0 243.95c0,5.64 0.13,10.59 0.4,14.87l0 0.04c0.27,4.28 0.67,7.93 1.21,10.95 0.53,2.86 1.37,5.37 2.53,7.55 1.12,2.09 2.57,3.88 4.35,5.38 1.75,1.35 3.95,2.49 6.6,3.4l0.2 0.07c2.69,0.91 5.85,1.6 9.46,2.05 3.87,0.48 8.47,0.83 13.77,1.05 5.27,0.22 11.45,0.33 18.53,0.33 3.35,0 6.55,-0.04 9.58,-0.13 3.19,-0.08 6.51,-0.21 9.97,-0.39 3.36,-0.17 6.64,-0.43 9.83,-0.76 3.22,-0.34 6.32,-0.75 9.28,-1.21 2.97,-0.52 5.77,-1.12 8.42,-1.81 2.65,-0.69 5.21,-1.47 7.68,-2.37l0.06 -0.02c2.33,-0.82 4.35,-1.75 6.04,-2.77 1.62,-0.98 2.95,-2.07 3.97,-3.24l0.05 -0.05c3.44,-3.87 7.16,-8.74 11.16,-14.6 4.02,-5.89 8.32,-12.8 12.91,-20.71 4.58,-7.92 8.49,-15.11 11.71,-21.57 3.19,-6.41 5.67,-12.02 7.42,-16.85 0.36,-1 1.31,-1.62 2.32,-1.62l18.35 -0.01c1.37,0 2.47,1.11 2.47,2.47l-0.02 0.32zm409.17 110.18l-151.04 0c-1.36,0 -2.47,-1.1 -2.47,-2.46l0 -18.36c0,-1.36 1.11,-2.47 2.47,-2.47 6.53,-0.43 12.51,-1.06 17.95,-1.89 5.43,-0.84 10.28,-1.89 14.57,-3.16l0.12 -0.03c4.04,-1.18 7.03,-2.47 8.97,-3.87 1.5,-1.07 2.25,-2.14 2.25,-3.18 0,-0.72 -0.04,-1.51 -0.11,-2.36 -0.08,-0.92 -0.19,-1.9 -0.31,-2.94l-0.01 -0.1c-0.15,-0.94 -0.34,-1.84 -0.58,-2.72l-0.03 -0.11c-0.23,-0.86 -0.5,-1.66 -0.79,-2.4l-29.5 -79.81 -124.14 0c-2.17,5.44 -4.12,10.49 -5.87,15.17 -1.95,5.21 -3.66,9.99 -5.17,14.34l-4.24 12.79c-1.36,4.13 -2.63,8.05 -3.78,11.7 -1.1,3.71 -2.03,7.03 -2.78,9.92 -0.75,2.9 -1.35,5.49 -1.79,7.76l-0.02 0.08c-0.82,4.42 -1.24,8 -1.24,10.73 0,2.72 1.11,5.18 3.31,7.34 2.44,2.4 6.17,4.48 11.2,6.24 5.23,1.83 10.81,3.28 16.7,4.36 5.99,1.09 12.32,1.8 18.97,2.15 1.32,0.07 2.34,1.16 2.34,2.46l0.01 18.36c0,1.36 -1.11,2.46 -2.47,2.46l-136.97 0c-1.36,0 -2.47,-1.1 -2.47,-2.46l0 -18.36c0,-1.34 1.07,-2.43 2.4,-2.47 2.11,-0.17 4.49,-0.48 7.15,-0.95 2.74,-0.49 5.75,-1.14 9.03,-1.94l0.03 -0.01c3.15,-0.75 6.03,-1.65 8.63,-2.67 2.62,-1.04 4.94,-2.21 6.96,-3.48l0.05 -0.04c3.24,-2.2 6.14,-4.47 8.71,-6.79 2.54,-2.32 4.71,-4.67 6.48,-7.07 1.8,-2.42 3.59,-5.31 5.37,-8.68 1.81,-3.41 3.58,-7.29 5.34,-11.66 9.06,-22.59 18.66,-46.78 28.78,-72.54 10.24,-26.07 20.76,-53.08 31.61,-81.08l58.91 -151.83c0.37,-0.97 1.3,-1.57 2.29,-1.57l20.54 -0.01c1.13,0 2.07,0.75 2.37,1.78l121.07 313.24c1.26,3.27 2.58,6.21 3.96,8.79 1.36,2.54 2.81,4.8 4.34,6.74 1.53,1.94 3.37,3.85 5.51,5.72 2.18,1.91 4.69,3.81 7.5,5.7 1.78,1.13 3.88,2.17 6.28,3.11l0.11 0.05c2.44,0.95 5.17,1.81 8.19,2.56l0.17 0.05c3.04,0.78 5.83,1.39 8.38,1.82 2.55,0.43 4.83,0.69 6.85,0.77 1.33,0.05 2.37,1.15 2.37,2.46l0.01 18.36c0,1.36 -1.11,2.46 -2.47,2.46zm-149.67 -153.35l-51.52 -131.88 -50.71 131.88 102.23 0zm596.45 -20.1c5.42,3.69 10.38,7.92 14.87,12.71 4.5,4.8 8.55,10.17 12.13,16.11l0.05 0.11c3.6,5.96 6.3,12.55 8.09,19.76 1.8,7.23 2.7,15.08 2.7,23.53 0,17.39 -3.79,32.4 -11.36,45.29 -3.76,6.37 -8.09,12.18 -12.98,17.42 -4.9,5.24 -10.37,9.93 -16.42,14.05 -5.84,4.02 -12.06,7.54 -18.65,10.58 -6.59,3.04 -13.55,5.6 -20.87,7.68 -7.3,2.08 -14.74,3.63 -22.32,4.67 -7.59,1.03 -15.26,1.54 -23.02,1.54l-172.1 0c-1.37,0 -2.47,-1.1 -2.47,-2.46l0 -18.36c0,-1.32 1.04,-2.4 2.34,-2.47 2.11,-0.18 4.69,-0.45 7.74,-0.82 2.93,-0.36 6.26,-0.8 9.96,-1.34 3.79,-0.55 7.07,-1.15 9.81,-1.79 2.67,-0.63 4.78,-1.28 6.33,-1.96l0.04 -0.01c2.42,-1.12 4.48,-2.39 6.17,-3.83 1.65,-1.39 2.95,-2.96 3.89,-4.69 0.98,-1.8 1.73,-3.89 2.24,-6.26 0.51,-2.39 0.77,-5.07 0.77,-8.03l0 -261c0,-2.76 -0.23,-5.36 -0.69,-7.77 -0.46,-2.34 -1.14,-4.52 -2.05,-6.5 -0.87,-1.92 -2.16,-3.67 -3.88,-5.23 -1.78,-1.62 -4.02,-3.06 -6.71,-4.3l-0.15 -0.08c-2.44,-1.23 -5.07,-2.32 -7.85,-3.26 -2.8,-0.94 -5.77,-1.75 -8.88,-2.43l-0.15 -0.04c-3.11,-0.63 -5.97,-1.16 -8.55,-1.57 -2.56,-0.41 -4.93,-0.71 -7.06,-0.88 -1.29,-0.1 -2.27,-1.19 -2.27,-2.46l0 -18.36c0,-1.36 1.1,-2.47 2.47,-2.47l168.25 0c6.48,0 12.89,0.34 19.22,0.99 6.36,0.65 12.58,1.63 18.61,2.92 6.05,1.28 11.98,3.1 17.79,5.41 5.81,2.32 11.47,5.13 16.96,8.43 5.23,3.11 10,6.77 14.3,10.98 4.28,4.19 8.1,8.93 11.43,14.21 3.41,5.35 5.96,11.27 7.66,17.77 1.68,6.46 2.52,13.47 2.52,21.04 0,6.54 -0.59,12.78 -1.78,18.69 -1.19,5.88 -2.97,11.4 -5.35,16.52 -2.39,5.19 -5.26,10 -8.61,14.43 -3.35,4.43 -7.19,8.49 -11.52,12.19l-0.05 0.04c-4.02,3.52 -8.31,6.75 -12.87,9.67 -4.58,2.93 -9.48,5.59 -14.66,7.96 -5.17,2.39 -10.54,4.52 -16.15,6.39 -3.5,1.16 -7.06,2.21 -10.69,3.15 3.2,0.52 6.5,1.16 9.92,1.92 5.9,1.31 12.11,3 18.62,5.02 6.59,2.05 12.82,4.52 18.68,7.37 5.83,2.84 11.33,6.1 16.46,9.76l0.09 0.06zm-65.18 -54.63c3.03,-3.55 5.61,-7.26 7.72,-11.12 2.1,-3.86 3.76,-7.88 4.98,-12.07 1.18,-4.23 2.07,-8.89 2.67,-13.96l0.01 -0.07c0.59,-5.06 0.89,-10.54 0.89,-16.42 0,-9.77 -1.31,-18.45 -3.94,-26.04 -2.6,-7.49 -6.5,-13.95 -11.71,-19.37 -5.17,-5.42 -11.88,-9.48 -20.11,-12.21 -8.39,-2.77 -18.35,-4.16 -29.86,-4.16 -3.03,0 -6.07,0.04 -9.22,0.11l-29.83 0.86 0 135.16 30.05 0c6.86,0 13.24,-0.44 19.1,-1.33 5.89,-0.88 11.26,-2.2 16.08,-3.93 4.78,-1.72 9.11,-3.88 12.97,-6.47 3.85,-2.57 7.24,-5.57 10.2,-8.98zm34.62 117.67c0,-10.42 -1.73,-19.9 -5.2,-28.39 -3.46,-8.46 -8.66,-16.01 -15.61,-22.62l-0.02 -0.02c-6.94,-6.64 -15.39,-11.63 -25.35,-14.96 -10.05,-3.36 -21.66,-5.05 -34.82,-5.05 -5.56,0 -10.33,0.04 -14.37,0.1 -4.81,0.08 -9.22,0.19 -13.17,0.33l-14.48 0.51 0 125.17c0,4.96 1,9.27 2.97,12.94 1.97,3.66 4.94,6.75 8.91,9.27l0.13 0.09c4.1,2.51 9.02,4.41 14.73,5.69 5.86,1.31 12.59,1.96 20.18,1.96 12.42,0 23.34,-1.8 32.77,-5.39 9.36,-3.57 17.28,-8.9 23.79,-16 6.49,-7.12 11.36,-15.94 14.61,-26.46 3.29,-10.63 4.93,-23.02 4.93,-37.17zm516 110.41l-97.89 0c-0.95,0 -1.78,-0.54 -2.19,-1.33 -10.62,-16.65 -20.9,-32.42 -30.81,-47.29 -9.81,-14.73 -19.07,-28.24 -27.75,-40.53 -8.8,-12.45 -17.9,-25 -27.3,-37.65 -9.13,-12.29 -18.73,-24.91 -28.79,-37.87l-33.47 0 0 112.65c0,2.85 0.22,5.51 0.66,7.95 0.45,2.47 1.1,4.76 1.95,6.86l0.03 0.08c0.81,1.86 2.04,3.51 3.71,4.94 1.78,1.53 4.07,2.83 6.9,3.91l0.09 0.03c1.38,0.55 3.33,1.09 5.86,1.63 2.66,0.56 5.85,1.1 9.6,1.61l0.09 0.01c3.72,0.48 7.2,0.86 10.39,1.15 3.18,0.29 6.09,0.48 8.67,0.57 1.33,0.04 2.38,1.14 2.39,2.46l0 18.36c0,1.36 -1.1,2.46 -2.47,2.46l-153.13 0c-1.36,0 -2.47,-1.1 -2.47,-2.46l0 -18.36c0,-1.32 1.04,-2.4 2.35,-2.47 3.76,-0.32 8.38,-0.79 14.24,-1.39l3.26 -0.34c3.77,-0.43 6.99,-0.92 9.61,-1.48 2.49,-0.52 4.4,-1.1 5.7,-1.71l0.23 -0.09c2.26,-0.98 4.21,-2.17 5.83,-3.6 1.61,-1.41 2.91,-3.05 3.91,-4.93 1.03,-1.95 1.81,-4.16 2.32,-6.64 0.53,-2.53 0.8,-5.38 0.8,-8.55l0 -262.48c0,-2.92 -0.21,-5.61 -0.61,-8.09 -0.4,-2.49 -1,-4.82 -1.77,-6.99 -0.69,-1.91 -1.88,-3.6 -3.55,-5.06 -1.77,-1.55 -4.09,-2.87 -6.93,-3.94 -2.1,-0.73 -4.58,-1.49 -7.42,-2.21 -2.66,-0.68 -5.55,-1.32 -8.63,-1.88l-0.03 -0.01c-3.32,-0.63 -6.37,-1.14 -9.12,-1.53 -2.88,-0.41 -5.52,-0.7 -7.89,-0.87 -1.3,-0.09 -2.3,-1.18 -2.3,-2.46l0 -18.36c0,-1.36 1.11,-2.47 2.47,-2.47l167.55 0c7.71,0 15.23,0.41 22.56,1.21 7.3,0.79 14.38,1.99 21.18,3.58l0.1 0.03c6.87,1.6 13.4,3.69 19.58,6.27 6.22,2.6 12.12,5.71 17.71,9.33 5.46,3.51 10.39,7.58 14.76,12.19 4.36,4.61 8.17,9.75 11.4,15.4 3.27,5.71 5.71,12.01 7.34,18.86 1.62,6.82 2.43,14.21 2.43,22.14 0,7.15 -0.54,13.89 -1.62,20.23 -1.09,6.33 -2.73,12.27 -4.94,17.82 -2.2,5.52 -4.94,10.69 -8.2,15.49 -3.28,4.84 -7.08,9.3 -11.36,13.36 -3.94,3.76 -8.28,7.27 -13.02,10.53 -4.72,3.25 -9.82,6.23 -15.28,8.94 -5.41,2.73 -11.15,5.25 -17.2,7.58 -4.96,1.9 -10.11,3.66 -15.45,5.29 7.94,10.51 15.43,20.48 22.49,29.95 7.59,10.18 14.29,19.26 20.06,27.21l1.25 1.71c11.51,15.66 25.44,34.62 42.43,57.35l0.14 0.2c3.62,4.97 7.1,9.31 10.42,13.01 3.3,3.66 6.41,6.65 9.35,8.96 3.02,2.4 6.01,4.6 8.98,6.56 2.9,1.91 5.78,3.61 8.63,5.08l0.07 0.04c2.04,0.99 4.38,1.89 7.01,2.68l0.2 0.07c2.62,0.78 5.51,1.46 8.7,2.04 3.25,0.56 6.25,1.01 9.01,1.35 2.75,0.33 5.18,0.55 7.27,0.63 1.33,0.05 2.38,1.14 2.38,2.46l0 18.36c0,1.36 -1.1,2.46 -2.47,2.46zm-137.24 -273.33c0,-10.71 -1.53,-20.3 -4.6,-28.75 -3.03,-8.36 -7.58,-15.64 -13.66,-21.79 -6.03,-6.17 -13.34,-10.8 -21.9,-13.9 -8.61,-3.11 -18.53,-4.68 -29.74,-4.68l-41.06 0 0 150.82 31 0c11.52,0 22.02,-1.83 31.53,-5.48 9.49,-3.64 18.05,-9.13 25.68,-16.46 7.55,-7.3 13.23,-15.9 17.02,-25.81 3.81,-9.96 5.73,-21.27 5.73,-33.95zm358.06 273.33l-163.63 0c-1.36,0 -2.47,-1.1 -2.47,-2.46l0 -18.36c0,-1.34 1.07,-2.43 2.4,-2.47 6.64,-0.51 13.37,-1.17 19.99,-1.57 4.19,-0.3 7.76,-0.7 10.69,-1.18 2.92,-0.49 5.22,-1.06 6.87,-1.71l0.18 -0.06c2.53,-0.99 4.73,-2.17 6.58,-3.54 1.83,-1.35 3.3,-2.87 4.4,-4.54 1.11,-1.68 1.96,-3.73 2.54,-6.11 0.59,-2.46 0.89,-5.3 0.89,-8.54l0 -263c0,-2.82 -0.22,-5.38 -0.65,-7.69l-0.01 -0.08c-0.43,-2.28 -1.07,-4.33 -1.9,-6.15l-0.02 -0.04c-0.79,-1.62 -2.11,-3.14 -3.98,-4.55 -2.03,-1.54 -4.71,-2.96 -8.04,-4.28l-0.2 -0.09c-2.41,-0.95 -5.2,-1.89 -8.33,-2.81 -3.16,-0.93 -6.64,-1.83 -10.42,-2.67 -3.89,-0.91 -7.36,-1.63 -10.44,-2.15 -3.08,-0.52 -5.83,-0.86 -8.25,-1.03 -1.3,-0.09 -2.29,-1.18 -2.29,-2.46l-0.01 -18.36c0,-1.36 1.11,-2.47 2.47,-2.47l163.63 0c1.36,0 2.47,1.11 2.47,2.47l0 18.36c0,1.36 -1.11,2.47 -2.47,2.47l-0.13 0c-2.59,0.08 -5.44,0.29 -8.53,0.6 -3.1,0.31 -6.41,0.74 -9.94,1.28 -3.52,0.55 -6.9,1.18 -10.14,1.89 -3.18,0.69 -6.06,1.43 -8.62,2.22 -3.02,0.97 -5.51,2.2 -7.46,3.68 -1.86,1.42 -3.26,3.08 -4.18,4.99 -1.01,2.15 -1.78,4.43 -2.3,6.84 -0.51,2.38 -0.78,4.88 -0.78,7.5l0 262.74c0,2.65 0.29,5.12 0.85,7.41l0.02 0.09c0.55,2.22 1.38,4.29 2.48,6.22l0.05 0.09c1.11,1.88 2.58,3.59 4.44,5.11l0.14 0.13c1.89,1.52 4.21,2.87 6.94,4.02l0.05 0.02c1.68,0.65 3.91,1.33 6.71,2.04 2.88,0.73 6.29,1.49 10.23,2.25l0.17 0.04c3.9,0.79 7.51,1.4 10.8,1.83 3.42,0.45 6.51,0.71 9.27,0.8 1.33,0.04 2.39,1.14 2.39,2.46l0.01 18.36c0,1.36 -1.11,2.46 -2.47,2.46zm444.83 -145.26c-1.92,0.24 -4.33,0.58 -7.33,1.03 -2.76,0.41 -5.72,0.87 -8.8,1.37 -3.35,0.55 -6.39,1.22 -9.11,1.98 -2.63,0.75 -4.93,1.59 -6.86,2.51 -2.34,1.19 -4.32,2.6 -5.95,4.23 -1.61,1.61 -2.89,3.45 -3.86,5.53l-0.05 0.12c-0.94,2.13 -1.64,4.46 -2.12,6.99 -0.49,2.59 -0.74,5.42 -0.74,8.47l0 28.23c0,11.05 0.02,19.75 0.07,25.81 0.05,6.89 0.14,12.16 0.27,15.79 0.12,3.3 0.26,6.41 0.42,9.27 0.16,3.02 0.35,5.8 0.54,8.29 0.08,1.09 -0.55,2.06 -1.5,2.46 -11.38,5.17 -22.76,9.73 -34.13,13.7 -11.36,3.97 -22.72,7.34 -34.08,10.11 -11.31,2.77 -22.52,4.84 -33.57,6.21 -11.18,1.39 -22.25,2.08 -33.17,2.08 -11.78,0 -23.32,-1.11 -34.65,-3.32 -11.32,-2.22 -22.42,-5.54 -33.32,-9.97l-0.12 -0.06c-10.86,-4.38 -21.02,-9.7 -30.48,-15.96 -9.49,-6.28 -18.3,-13.52 -26.42,-21.67 -8.23,-8.23 -15.62,-17.37 -22.16,-27.41 -6.52,-10.01 -12.18,-20.9 -17,-32.66 -4.83,-11.75 -8.47,-24.23 -10.89,-37.39 -2.42,-13.15 -3.64,-26.98 -3.64,-41.43 0,-28 4.6,-53.99 13.8,-77.97l0.07 -0.17c4.65,-11.92 10.25,-23.09 16.78,-33.47 6.54,-10.38 14.03,-19.99 22.47,-28.78 8.19,-8.69 17.19,-16.4 26.97,-23.14 9.79,-6.74 20.37,-12.51 31.73,-17.3 11.41,-4.84 23.18,-8.45 35.31,-10.85 12.16,-2.4 24.71,-3.6 37.67,-3.6 10.3,0 19.97,0.62 29,1.88 9.05,1.25 17.43,3.14 25.16,5.67l0.12 0.04c14.34,4.65 27.14,10.25 38.39,16.78l9.23 -15.31c0.46,-0.77 1.27,-1.19 2.11,-1.19l20.45 -0.01c1.36,0 2.47,1.11 2.47,2.47l2.09 126.88c0.02,1.35 -1.06,2.48 -2.42,2.5l-21.02 0.01c-1.23,0 -2.25,-0.9 -2.44,-2.08 -1.75,-6.83 -3.73,-13.64 -5.92,-20.42 -2.21,-6.83 -4.62,-13.58 -7.22,-20.25 -2.62,-6.66 -5.62,-13 -8.98,-18.98 -3.34,-5.93 -7.05,-11.52 -11.12,-16.76l-0.11 -0.15c-4.07,-5.18 -8.54,-9.84 -13.45,-13.97 -4.94,-4.15 -10.35,-7.79 -16.24,-10.91l-0.13 -0.07c-5.73,-3.04 -12.07,-5.32 -18.96,-6.85 -7.01,-1.55 -14.63,-2.32 -22.85,-2.32 -8.91,0 -17.36,0.92 -25.3,2.74 -7.94,1.83 -15.4,4.55 -22.33,8.16 -7.02,3.65 -13.59,8.17 -19.68,13.57 -6.05,5.37 -11.66,11.64 -16.77,18.81l-0.12 0.15c-5.05,6.93 -9.54,14.72 -13.46,23.38 -3.96,8.74 -7.33,18.33 -10.08,28.81 -2.81,10.47 -4.92,21.56 -6.31,33.28 -1.39,11.72 -2.09,24.08 -2.09,37.06 0,11.49 0.69,22.6 2.06,33.33 1.37,10.73 3.43,21.18 6.16,31.33 2.71,10.07 6.06,19.43 10.01,28.09 3.99,8.72 8.61,16.75 13.83,24.08l0.07 0.12c5.11,7.4 10.9,14.02 17.32,19.83 6.47,5.85 13.61,10.91 21.37,15.16 7.74,4.27 15.99,7.47 24.75,9.6 8.78,2.13 18.12,3.2 28,3.2 7.39,0 14.42,-0.58 21.11,-1.72 6.7,-1.14 13.06,-2.85 19.1,-5.11 6.04,-2.26 11.19,-4.6 15.46,-6.99 3.85,-2.15 6.95,-4.34 9.31,-6.58 0.59,-4.11 1.07,-8.26 1.41,-12.45 0.37,-4.51 0.6,-8.98 0.64,-13.38l0.07 -12.61 0.01 -30.64c0,-3.51 -0.24,-6.8 -0.71,-9.87 -0.47,-3.06 -1.17,-5.91 -2.11,-8.53l-0.01 -0.03c-0.85,-2.43 -2.16,-4.53 -3.92,-6.28 -1.81,-1.82 -4.11,-3.3 -6.87,-4.49l-0.08 -0.03c-2.68,-1.2 -5.86,-2.26 -9.54,-3.19 -3.76,-0.94 -8,-1.74 -12.73,-2.38 -4.68,-0.63 -8.88,-1.14 -12.62,-1.54 -3.83,-0.41 -7.14,-0.71 -9.93,-0.88 -1.31,-0.08 -2.31,-1.17 -2.31,-2.46l-0.01 -18.36c0,-1.36 1.11,-2.47 2.47,-2.47l159.43 0c1.36,0 2.47,1.11 2.47,2.47l0 18.36c0,1.33 -1.06,2.42 -2.38,2.47zm415.54 145.26l-151.03 0c-1.36,0 -2.47,-1.1 -2.47,-2.46l0 -18.36c0,-1.36 1.1,-2.47 2.47,-2.47 6.52,-0.43 12.5,-1.06 17.94,-1.89 5.44,-0.84 10.29,-1.89 14.58,-3.16l0.12 -0.03c4.03,-1.18 7.03,-2.47 8.97,-3.87 1.5,-1.07 2.24,-2.14 2.24,-3.18 0,-0.72 -0.04,-1.51 -0.11,-2.36 -0.07,-0.92 -0.18,-1.9 -0.3,-2.94l-0.01 -0.1c-0.15,-0.94 -0.35,-1.84 -0.58,-2.72l-0.03 -0.11c-0.23,-0.86 -0.5,-1.66 -0.79,-2.4l-29.5 -79.81 -124.14 0c-2.17,5.44 -4.12,10.49 -5.87,15.17 -1.95,5.21 -3.67,9.99 -5.17,14.34l-4.24 12.79c-1.36,4.13 -2.63,8.05 -3.78,11.7 -1.1,3.71 -2.04,7.03 -2.79,9.92 -0.75,2.9 -1.35,5.49 -1.78,7.76l-0.02 0.08c-0.83,4.42 -1.24,8 -1.24,10.73 0,2.72 1.1,5.18 3.31,7.34 2.43,2.4 6.17,4.48 11.2,6.24 5.23,1.83 10.8,3.28 16.69,4.36 5.99,1.09 12.33,1.8 18.98,2.15 1.32,0.07 2.34,1.16 2.34,2.46l0.01 18.36c0,1.36 -1.11,2.46 -2.47,2.46l-136.97 0c-1.36,0 -2.47,-1.1 -2.47,-2.46l0 -18.36c0,-1.34 1.07,-2.43 2.4,-2.47 2.11,-0.17 4.49,-0.48 7.14,-0.95 2.75,-0.49 5.76,-1.14 9.04,-1.94l0.03 -0.01c3.15,-0.75 6.03,-1.65 8.63,-2.67 2.62,-1.04 4.94,-2.21 6.96,-3.48l0.05 -0.04c3.23,-2.2 6.14,-4.47 8.7,-6.79 2.55,-2.32 4.72,-4.67 6.49,-7.07 1.8,-2.42 3.59,-5.31 5.37,-8.68 1.8,-3.41 3.58,-7.29 5.34,-11.66 9.06,-22.59 18.65,-46.78 28.78,-72.54 10.24,-26.07 20.76,-53.08 31.6,-81.08l58.91 -151.83c0.38,-0.97 1.31,-1.57 2.3,-1.57l20.54 -0.01c1.12,0 2.07,0.75 2.37,1.78l121.07 313.24c1.25,3.27 2.57,6.21 3.96,8.79 1.35,2.54 2.8,4.8 4.34,6.74 1.52,1.94 3.36,3.85 5.51,5.72 2.18,1.91 4.69,3.81 7.5,5.7 1.78,1.13 3.88,2.17 6.27,3.11l0.12 0.05c2.43,0.95 5.17,1.81 8.19,2.56l0.16 0.05c3.05,0.78 5.84,1.39 8.38,1.82 2.56,0.43 4.84,0.69 6.86,0.77 1.33,0.05 2.37,1.15 2.37,2.46l0 18.36c0,1.36 -1.1,2.46 -2.47,2.46zm-149.66 -153.35l-51.53 -131.88 -50.71 131.88 102.24 0zm560.78 -28.65c0,15.62 -1.47,30.24 -4.41,43.84 -2.93,13.56 -7.35,26.14 -13.26,37.7 -5.9,11.52 -12.66,22 -20.3,31.44 -7.65,9.44 -16.2,17.86 -25.65,25.23 -9.53,7.36 -19.63,13.78 -30.28,19.26 -10.66,5.48 -21.9,10.04 -33.71,13.67l-0.12 0.03c-11.82,3.61 -23.79,6.32 -35.92,8.12 -12.2,1.81 -24.59,2.71 -37.14,2.71l-150.43 0c-1.36,0 -2.47,-1.1 -2.47,-2.46l0 -18.36c0,-1.36 1.11,-2.47 2.47,-2.47 2.52,0 5.39,-0.11 8.61,-0.34 3.13,-0.23 6.64,-0.57 10.51,-1.04 3.94,-0.48 7.18,-0.97 9.71,-1.48 2.44,-0.5 4.23,-1.01 5.36,-1.53l0.07 -0.03c2.3,-1 4.28,-2.24 5.93,-3.69 1.64,-1.45 2.97,-3.12 3.96,-4.99l0.01 -0.02c1.07,-1.99 1.87,-4.19 2.4,-6.57 0.53,-2.42 0.8,-5.09 0.8,-8l0 -262.04c0,-2.76 -0.24,-5.39 -0.7,-7.84 -0.46,-2.39 -1.14,-4.64 -2.07,-6.72l-0.07 -0.18c-0.86,-1.93 -2.13,-3.68 -3.8,-5.24 -1.78,-1.65 -4.01,-3.11 -6.7,-4.35l-0.2 -0.1c-2.49,-1.22 -5.14,-2.27 -7.89,-3.16 -2.78,-0.9 -5.71,-1.64 -8.74,-2.24l-0.13 -0.02c-3,-0.55 -5.82,-1.02 -8.43,-1.39 -2.62,-0.37 -5.04,-0.65 -7.25,-0.82 -1.29,-0.1 -2.27,-1.19 -2.27,-2.46l0 -18.36c0,-1.36 1.1,-2.47 2.47,-2.47l158.81 0c11.05,0 22.04,0.87 32.97,2.59 10.89,1.71 21.68,4.28 32.37,7.68 10.74,3.41 20.8,7.43 30.15,12.04 9.33,4.6 17.97,9.79 25.89,15.58 10.85,7.72 20.52,16.62 29.02,26.72 8.51,10.1 15.83,21.4 21.99,33.88 6.16,12.47 10.78,26.04 13.85,40.71 3.06,14.65 4.59,30.37 4.59,47.17zm-67.87 -0.17c0,-12.09 -0.8,-23.58 -2.4,-34.46 -1.59,-10.88 -3.99,-21.2 -7.18,-30.94 -3.18,-9.69 -7.11,-18.78 -11.76,-27.25 -4.64,-8.45 -10.01,-16.29 -16.1,-23.49 -5.75,-6.88 -12.17,-13.01 -19.24,-18.4 -7.06,-5.37 -14.78,-10.01 -23.17,-13.91l-0.15 -0.07c-8.34,-3.9 -17.14,-6.84 -26.42,-8.8 -9.32,-1.97 -19.14,-2.96 -29.47,-2.96 -3.87,0 -7.63,0.02 -11.05,0.07 -3.89,0.05 -8.05,0.14 -12.49,0.27l-17.09 0.6 0 276.9c0,7.4 1.08,13.63 3.2,18.69 2.07,4.93 5.16,8.77 9.24,11.51 4.24,2.79 9.68,4.9 16.31,6.32 6.76,1.45 14.74,2.18 23.94,2.18 10.65,0 20.61,-0.95 29.86,-2.83 9.23,-1.88 17.81,-4.71 25.73,-8.47 7.9,-3.76 15.06,-8.24 21.45,-13.45 6.39,-5.19 12.04,-11.12 16.94,-17.77 5.14,-7.02 9.6,-14.61 13.38,-22.75 3.79,-8.17 6.89,-16.89 9.3,-26.13 2.38,-9.37 4.17,-19.47 5.37,-30.28 1.2,-10.77 1.8,-22.3 1.8,-34.58zm497.21 182.17l-151.04 0c-1.36,0 -2.47,-1.1 -2.47,-2.46l0 -18.36c0,-1.36 1.1,-2.47 2.47,-2.47 6.52,-0.43 12.5,-1.06 17.94,-1.89 5.44,-0.84 10.29,-1.89 14.58,-3.16l0.12 -0.03c4.03,-1.18 7.03,-2.47 8.97,-3.87 1.5,-1.07 2.25,-2.14 2.25,-3.18 0,-0.72 -0.05,-1.51 -0.12,-2.36 -0.07,-0.92 -0.18,-1.9 -0.3,-2.94l-0.01 -0.1c-0.15,-0.94 -0.35,-1.84 -0.58,-2.72l-0.03 -0.11c-0.23,-0.86 -0.5,-1.66 -0.79,-2.4l-29.5 -79.81 -124.14 0c-2.17,5.44 -4.12,10.49 -5.87,15.17 -1.95,5.21 -3.67,9.99 -5.17,14.34l-4.24 12.79c-1.36,4.13 -2.63,8.05 -3.78,11.7 -1.1,3.71 -2.04,7.03 -2.79,9.92 -0.75,2.9 -1.35,5.49 -1.78,7.76l-0.02 0.08c-0.83,4.42 -1.24,8 -1.24,10.73 0,2.72 1.11,5.18 3.31,7.34 2.43,2.4 6.17,4.48 11.2,6.24 5.23,1.83 10.8,3.28 16.7,4.36 5.98,1.09 12.32,1.8 18.97,2.15 1.32,0.07 2.34,1.16 2.34,2.46l0.01 18.36c0,1.36 -1.11,2.46 -2.47,2.46l-136.97 0c-1.36,0 -2.47,-1.1 -2.47,-2.46l0 -18.36c0,-1.34 1.07,-2.43 2.4,-2.47 2.11,-0.17 4.49,-0.48 7.14,-0.95 2.75,-0.49 5.76,-1.14 9.04,-1.94l0.03 -0.01c3.15,-0.75 6.03,-1.65 8.63,-2.67 2.62,-1.04 4.94,-2.21 6.96,-3.48l0.05 -0.04c3.23,-2.2 6.14,-4.47 8.7,-6.79 2.55,-2.32 4.72,-4.67 6.49,-7.07 1.8,-2.42 3.59,-5.31 5.37,-8.68 1.8,-3.41 3.58,-7.29 5.34,-11.66 9.06,-22.59 18.65,-46.78 28.78,-72.54 10.24,-26.07 20.76,-53.08 31.6,-81.08l58.91 -151.83c0.38,-0.97 1.31,-1.57 2.3,-1.57l20.54 -0.01c1.12,0 2.07,0.75 2.37,1.78l121.07 313.24c1.25,3.27 2.57,6.21 3.96,8.79 1.35,2.54 2.8,4.8 4.34,6.74 1.52,1.94 3.37,3.85 5.51,5.72 2.18,1.91 4.69,3.81 7.5,5.7 1.78,1.13 3.88,2.17 6.27,3.11l0.12 0.05c2.43,0.95 5.17,1.81 8.19,2.56l0.16 0.05c3.05,0.78 5.84,1.39 8.38,1.82 2.56,0.43 4.84,0.69 6.86,0.77 1.33,0.05 2.37,1.15 2.37,2.46l0.01 18.36c0,1.36 -1.11,2.46 -2.47,2.46zm-149.67 -153.35l-51.53 -131.88 -50.71 131.88 102.24 0z"/>
  </g>
 </g>
</svg>
